<svg width="255" height="48" viewBox="0 0 255 48" fill="none" xmlns="http://www.w3.org/2000/svg">
<g clip-path="url(#clip0_124_23)">
<path d="M6.84972 43.4883V31.367H0V29.9912H15.3903V31.367H8.50032V43.4883H6.84972Z" fill="#BF2F4A"/>
<path d="M26.7451 42.3541C26.5256 42.7206 26.2171 43.0268 25.8479 43.2447C25.659 43.3356 25.4611 43.407 25.2574 43.4578C25.0246 43.5182 24.7849 43.5482 24.5443 43.5472L21.9141 43.6291H20.6699C18.9854 43.6291 17.8678 43.3855 17.3169 42.8984C16.7661 42.4112 16.4894 41.7072 16.4868 40.7862C16.4868 39.7713 16.6741 39.0539 17.0485 38.634C17.4679 38.1926 18.0395 37.9242 18.6493 37.8824L20.4839 37.7606H21.9716L24.6555 37.8424C25.0603 37.8233 25.4642 37.8962 25.8364 38.0555C26.1961 38.2635 26.5031 38.5506 26.7336 38.8947V37.8824C26.7427 37.397 26.6984 36.912 26.6013 36.4362C26.5611 36.2509 26.4835 36.0756 26.3731 35.9209C26.2627 35.7662 26.1219 35.6353 25.9591 35.5361C25.7425 35.4116 25.5087 35.3193 25.2651 35.2621C24.9453 35.184 24.6167 35.1469 24.2874 35.1517L22.562 35.0909H21.2201C21.0035 35.0909 20.7753 35.0909 20.5376 35.1118C20.2999 35.1327 19.9951 35.1556 19.6212 35.2031C19.4532 35.2176 19.2902 35.267 19.1425 35.3479C18.9949 35.4289 18.8661 35.5397 18.7643 35.6731C18.5454 36.0182 18.4421 36.4232 18.4691 36.8301H16.9201C16.9201 35.8063 17.1405 35.0947 17.5815 34.6951C18.0463 34.2881 18.6345 34.0464 19.2532 34.0081C19.9254 33.9472 20.4622 33.9035 20.8635 33.8768C21.2642 33.8502 21.6553 33.835 22.0368 33.835L24.3372 33.8959C25.0085 33.914 25.6741 34.0228 26.3157 34.2193C26.6254 34.2862 26.9156 34.4222 27.1644 34.6171C27.4132 34.8119 27.614 35.0605 27.7516 35.3439C28.0315 35.9161 28.1708 36.6544 28.1695 37.5589V43.4882H26.7432L26.7451 42.3541ZM21.9351 42.3142H24.1762C24.3808 42.316 24.5852 42.3026 24.7878 42.2742C24.9641 42.2476 25.336 42.1562 25.8997 42.0021C26.4633 41.848 26.7451 41.3951 26.7451 40.6453C26.7451 40.0111 26.5534 39.6089 26.17 39.4389C25.7435 39.2517 25.2912 39.1292 24.828 39.0755L23.2579 38.9956H21.9927C21.015 38.9956 20.3325 39.0159 19.9452 39.0564C19.5762 39.0929 19.2131 39.1741 18.864 39.2981C18.7183 39.3422 18.5833 39.4156 18.4675 39.5138C18.3517 39.6121 18.2576 39.733 18.1911 39.869C18.0698 40.1574 18.011 40.468 18.0186 40.7805C18.0079 40.9877 18.0415 41.1949 18.1172 41.3884C18.1928 41.5819 18.3088 41.7573 18.4576 41.9031C18.749 42.1784 19.3503 42.3167 20.2615 42.318L21.9351 42.3142Z" fill="#BF2F4A"/>
<path d="M32.8606 35.9398C33.1597 35.0365 33.6792 34.46 34.4192 34.2101C35.1592 33.9602 36.1414 33.8333 37.3657 33.8295H37.5575C38.3965 33.8131 39.2354 33.8679 40.065 33.9931C40.6962 34.0745 41.2929 34.3259 41.7904 34.72C42.2425 35.0313 42.5707 35.4897 42.7182 36.0159C42.8555 36.5853 42.9199 37.1697 42.9099 37.7551V43.4828H41.4836V37.9035C41.4836 36.7301 41.1641 35.969 40.5251 35.6201C39.8861 35.2712 38.8943 35.0962 37.5498 35.0949C36.0008 35.0949 34.832 35.2636 34.0435 35.6011C33.2549 35.9385 32.8606 36.7815 32.8606 38.13V43.4923H31.4401V33.9779H32.8664L32.8606 35.9398Z" fill="#BF2F4A"/>
<path d="M47.5992 31.6504H46.1729V29.875H47.5992V31.6504ZM47.5992 43.4882H46.1729V33.9738H47.5992V43.4882Z" fill="#BF2F4A"/>
<path d="M59.1782 35.1917L56.362 35.0909H54.8955C54.4816 35.0955 54.0687 35.133 53.6609 35.2031C53.2622 35.2546 52.8778 35.384 52.5298 35.5837C52.2435 35.7613 52.101 36.0784 52.1023 36.5351C52.1023 37.1098 52.2448 37.4993 52.5298 37.7035C52.8416 37.8824 53.3037 37.9718 53.9158 37.9718L56.3831 38.0327H59.0536C60.2499 38.0327 61.1298 38.2185 61.6934 38.5902C62.2571 38.9619 62.5389 39.6964 62.5389 40.7938C62.5389 42.0535 62.2034 42.8419 61.5324 43.159C60.8614 43.4762 59.8268 43.6354 58.4286 43.6367H53.8928C53.3618 43.6265 52.8331 43.5628 52.3151 43.4464C52.0387 43.4006 51.7741 43.3011 51.5365 43.1535C51.299 43.0059 51.0932 42.8131 50.931 42.5863C50.6255 42.1423 50.4728 41.5175 50.4728 40.7119V40.2819H51.9202L51.9413 40.5045C51.9413 41.1642 52.0691 41.6082 52.3247 41.8365C52.5835 42.0649 53.0647 42.2171 53.7721 42.3008L56.2796 42.3827H57.8689C58.1277 42.3827 58.3826 42.3827 58.6357 42.3617C58.8717 42.3501 59.1067 42.3234 59.3393 42.2818C59.9783 42.1994 60.4167 42.0776 60.6544 41.9165C60.8921 41.7554 61.011 41.4452 61.011 40.986C61.011 40.325 60.8442 39.8696 60.5106 39.6197C60.1789 39.3704 59.6441 39.2391 58.9117 39.2391L56.3218 39.2182H53.8564C52.7829 39.2182 51.9675 39.0526 51.4102 38.7215C50.853 38.3904 50.5744 37.713 50.5744 36.6893C50.5744 35.7581 50.8428 35.0699 51.3796 34.6247C51.9163 34.1794 52.6742 33.9567 53.6532 33.9567L56.364 33.835H58.7699C59.069 33.8959 59.2933 33.9377 59.4428 33.9567C60.4205 33.9567 61.1202 34.1661 61.542 34.5847C61.9637 35.0033 62.1746 35.6915 62.1746 36.6493H60.7483C60.7483 36.1622 60.618 35.8063 60.3649 35.5761C60.1828 35.3934 59.7898 35.2716 59.1782 35.1917Z" fill="#BF2F4A"/>
<path d="M66.8216 31.6504H65.3953V29.875H66.8216V31.6504ZM66.8216 43.4882H65.3953V33.9738H66.8216V43.4882Z" fill="#BF2F4A"/>
<path d="M87.8194 31.7361C87.3158 31.5742 86.7967 31.4645 86.2704 31.4088C85.9023 31.3694 85.4805 31.3352 85.0051 31.306C84.5297 31.2768 83.9865 31.2635 83.3756 31.2661H82.8005C82.5014 31.2661 82.0471 31.2908 81.4336 31.3365C80.8201 31.3821 80.3466 31.4069 80.0073 31.4069C79.0296 31.4881 78.333 31.6213 77.9177 31.8065C77.7362 31.8742 77.5704 31.9777 77.4303 32.1108C77.2903 32.244 77.1789 32.4039 77.1029 32.5809C76.9656 32.9642 76.9007 33.3693 76.9112 33.7759C76.9112 34.579 77.1355 35.1441 77.5841 35.4714C78.0595 35.7695 78.7254 35.9192 79.5817 35.9205H85.7585C86.1419 35.9205 86.4237 35.9205 86.6135 35.9395C86.8033 35.9585 87.1714 36.0004 87.7159 36.0822C88.5077 36.1291 89.2576 36.4511 89.8342 36.9918C90.3787 37.5183 90.6509 38.4063 90.6509 39.6558C90.6723 40.3565 90.5415 41.0535 90.2675 41.6995C89.988 42.2651 89.5112 42.7107 88.9255 42.9535C88.2233 43.2277 87.4844 43.3982 86.7324 43.4597C85.7674 43.557 84.798 43.604 83.828 43.6005H80.4597C80.1472 43.6005 79.8386 43.5872 79.5319 43.5605C79.2251 43.5339 78.6558 43.4654 77.8199 43.3569C77.4439 43.323 77.0786 43.2142 76.7459 43.037C76.4133 42.8598 76.12 42.6178 75.8837 42.3256C75.4274 41.7471 75.1999 40.7291 75.2012 39.2715H76.8518V39.555C76.8319 40.0694 76.8967 40.5835 77.0435 41.0773C77.1649 41.416 77.4978 41.6659 78.0423 41.827C78.3541 41.9069 78.6832 41.9773 79.0296 42.0382C79.4173 42.1024 79.8098 42.1329 80.2028 42.1296L82.8522 42.1905C84.0411 42.1993 85.2293 42.1358 86.4103 42.0002C87.3804 41.8733 88.0462 41.645 88.4079 41.3151C88.7696 40.9853 88.9498 40.4246 88.9485 39.633C88.9485 38.6537 88.7178 38.0314 88.2565 37.7663C87.7951 37.5011 87.0283 37.3679 85.956 37.3667H82.8331L79.1906 37.2658C77.9407 37.2658 76.9636 37.0229 76.2594 36.537C75.5552 36.0512 75.2025 35.2266 75.2012 34.0633C75.1727 33.2792 75.3221 32.4989 75.6383 31.7798C75.9504 31.1573 76.4942 30.6797 77.1547 30.4478C77.5549 30.3078 77.9626 30.1897 78.3759 30.0939C78.8031 29.9936 79.2405 29.9425 79.6795 29.9417C80.6418 29.8617 81.7205 29.8218 82.9155 29.8218H85.053C85.7771 29.8566 86.4982 29.938 87.2117 30.0653C87.656 30.0532 88.0974 30.1397 88.5038 30.3184C88.8868 30.5042 89.2294 30.7628 89.5122 31.0796C90.0413 31.6466 90.3058 32.5302 90.3058 33.7303H88.6552C88.6552 33.1061 88.5869 32.6539 88.4501 32.3735C88.3157 32.0983 88.0942 31.8744 87.8194 31.7361Z" fill="#BF2F4A"/>
<path d="M103.944 33.9779L98.6221 44.2763C97.9166 45.6387 97.2814 46.6003 96.7165 47.161C96.1516 47.7218 95.2449 48.0015 93.9962 48.0002H93.262V46.8471L93.6703 46.8661C94.648 46.8661 95.3407 46.6219 95.7484 46.1335C96.0884 45.6971 96.6347 44.7812 97.3875 43.3857H96.8373L91.4446 33.9779H93.0971L97.9185 42.4096L102.276 33.9741L103.944 33.9779Z" fill="#BF2F4A"/>
<path d="M113.491 35.1917L110.679 35.0909H109.21C108.797 35.0955 108.385 35.133 107.977 35.2031C107.579 35.2543 107.194 35.3837 106.846 35.5837C106.56 35.7613 106.417 36.0784 106.417 36.5351C106.417 37.1098 106.56 37.4993 106.846 37.7035C107.158 37.8824 107.62 37.9718 108.232 37.9718L110.698 38.0327H113.368C114.565 38.0327 115.444 38.2185 116.008 38.5902C116.572 38.9619 116.854 39.6964 116.855 40.7938C116.855 42.0535 116.519 42.8419 115.847 43.159C115.175 43.4762 114.14 43.6354 112.743 43.6367H108.198C107.667 43.6264 107.138 43.5627 106.62 43.4464C106.344 43.4006 106.08 43.301 105.842 43.1534C105.605 43.0058 105.4 42.8131 105.238 42.5863C104.931 42.1423 104.779 41.5175 104.78 40.7119V40.2819H106.227L106.246 40.5045C106.246 41.1648 106.377 41.6101 106.63 41.8365C106.883 42.063 107.372 42.2171 108.077 42.3008L110.585 42.3827H112.176C112.433 42.3827 112.688 42.3827 112.943 42.3617C113.179 42.3503 113.414 42.3236 113.646 42.2818C114.285 42.1994 114.724 42.0776 114.961 41.9165C115.199 41.7554 115.318 41.4452 115.318 40.986C115.318 40.325 115.152 39.8696 114.82 39.6197C114.487 39.3698 113.954 39.2429 113.219 39.2391L110.631 39.2182H108.163C107.09 39.2182 106.274 39.0526 105.717 38.7215C105.16 38.3904 104.881 37.713 104.881 36.6893C104.881 35.7581 105.15 35.0699 105.687 34.6247C106.223 34.1794 106.981 33.9567 107.96 33.9567L110.671 33.835H113.077C113.374 33.8959 113.598 33.9377 113.748 33.9567C114.728 33.9567 115.431 34.1661 115.857 34.5847C116.282 35.0033 116.492 35.6915 116.487 36.6493H115.061C115.061 36.1622 114.933 35.8063 114.678 35.5761C114.49 35.3934 114.095 35.2716 113.491 35.1917Z" fill="#BF2F4A"/>
<path d="M128.182 35.1916H121.556V39.7585C121.556 40.7974 121.74 41.499 122.106 41.8631C122.49 42.2005 123.21 42.3692 124.267 42.3692C125.26 42.3692 125.984 42.2474 126.439 42.0039C126.894 41.7603 127.121 41.2142 127.121 40.3655V39.2923H128.427C128.427 41.0467 128.216 42.2068 127.794 42.7726C127.373 43.3384 126.251 43.6219 124.43 43.6232C122.95 43.6232 121.864 43.4329 121.171 43.0524C120.478 42.6718 120.132 41.7984 120.132 40.4321V35.1916H117.804V33.9775H120.13V31.833H121.556V33.9775H128.182V35.1916Z" fill="#BF2F4A"/>
<path d="M133.685 42.1925L134.725 42.3143L136.417 42.3752H137.435C138.021 42.3752 138.51 42.3549 138.904 42.3143C139.269 42.2817 139.626 42.1931 139.964 42.0517C140.244 41.9413 140.486 41.7514 140.658 41.5055C140.818 41.2403 140.915 40.9422 140.942 40.634H142.45C142.45 41.876 141.944 42.6853 140.932 43.0621C139.92 43.4389 138.612 43.6291 137.008 43.633C135.201 43.633 133.889 43.5556 133.074 43.4008C132.263 43.2486 131.54 42.8005 131.046 42.1449C130.509 41.4649 130.24 40.3353 130.24 38.7559C130.24 36.8289 130.618 35.5242 131.372 34.8417C132.126 34.1592 133.495 33.8186 135.48 33.8198H136.458C137.205 33.8198 137.865 33.8401 138.436 33.8807C138.936 33.9113 139.434 33.9794 139.924 34.0843C140.3 34.1595 140.657 34.3076 140.975 34.5202C141.293 34.7328 141.566 35.0056 141.777 35.3231C142.24 35.9866 142.471 37.0433 142.471 38.4933L142.45 38.9785H131.667C131.667 39.93 131.793 40.6511 132.05 41.1649C132.307 41.6787 132.842 42.0174 133.685 42.1925ZM137.031 35.07H135.905C135.193 35.0627 134.481 35.1072 133.776 35.2032C133.291 35.2456 132.827 35.4179 132.434 35.7018C132.143 35.9434 131.926 36.2612 131.809 36.619C131.769 36.7966 131.735 36.9735 131.705 37.1499C131.677 37.3522 131.663 37.5564 131.665 37.7607H140.982C140.984 37.3937 140.943 37.0277 140.859 36.6703C140.782 36.3469 140.611 36.053 140.366 35.8255C140.03 35.549 139.629 35.3594 139.201 35.2736C138.893 35.2088 138.582 35.1611 138.269 35.1309C137.858 35.0896 137.444 35.0693 137.031 35.07Z" fill="#BF2F4A"/>
<path d="M146.894 35.4945C147.004 35.1801 147.186 34.8957 147.427 34.6643C147.668 34.4329 147.96 34.261 148.28 34.1625C149.094 33.9255 149.94 33.8157 150.788 33.8371H151.094C151.683 33.8347 152.272 33.862 152.858 33.9189C153.318 33.9598 153.772 34.0478 154.213 34.1815C154.988 34.3845 155.559 34.9376 155.925 35.8408C156.291 34.9795 156.848 34.4302 157.597 34.1929C158.346 33.9557 159.331 33.8371 160.553 33.8371C162.332 33.8371 163.657 34.087 164.527 34.5868C165.398 35.0867 165.831 36.1447 165.827 37.7608V43.4885H164.399V37.7608C164.399 36.6546 164.104 35.9334 163.513 35.5973C162.923 35.2611 161.996 35.0924 160.732 35.0911H160.241C158.678 35.0911 157.638 35.3169 157.122 35.7685C156.605 36.2201 156.35 36.8842 156.355 37.7608V43.4885H154.929V37.7608C154.929 36.8728 154.701 36.2055 154.246 35.759C153.791 35.3125 152.728 35.0898 151.056 35.0911C149.315 35.0911 148.187 35.3372 147.672 35.8294C147.157 36.3216 146.902 37.0669 146.906 38.0653V43.4885H145.468V33.9741H146.894V35.4945Z" fill="#BF2F4A"/>
<path d="M177.412 35.1915L174.598 35.0907H173.131C172.717 35.0953 172.304 35.1328 171.897 35.2029C171.498 35.2544 171.113 35.3838 170.765 35.5835C170.479 35.7611 170.337 36.0782 170.338 36.5349C170.338 37.1096 170.48 37.4991 170.765 37.7033C171.077 37.8822 171.539 37.9716 172.152 37.9716L174.619 38.0325H177.289C178.486 38.0325 179.365 38.2183 179.929 38.59C180.493 38.9617 180.776 39.6937 180.78 40.786C180.78 42.0457 180.445 42.8341 179.774 43.1512C179.103 43.4684 178.068 43.6276 176.67 43.6289H172.127C171.596 43.6187 171.067 43.555 170.549 43.4386C170.272 43.3928 170.008 43.2933 169.77 43.1457C169.533 42.9981 169.327 42.8053 169.165 42.5785C168.861 42.1345 168.708 41.5097 168.707 40.7041V40.2741H170.154L170.175 40.4967C170.175 41.1564 170.303 41.6004 170.558 41.8287C170.815 42.0571 171.298 42.2093 172.006 42.293L174.513 42.3749H176.103C176.361 42.3749 176.616 42.3749 176.869 42.3539C177.105 42.3423 177.34 42.3156 177.573 42.274C178.211 42.1922 178.649 42.0704 178.888 41.9087C179.128 41.7469 179.245 41.4367 179.245 40.9781C179.245 40.3172 179.078 39.8618 178.744 39.6119C178.411 39.362 177.877 39.2351 177.144 39.2313L174.556 39.2104H172.09C171.017 39.2104 170.201 39.0448 169.644 38.7137C169.087 38.3826 168.808 37.7052 168.808 36.6815C168.808 35.7503 169.077 35.0621 169.613 34.6168C170.15 34.1716 170.908 33.9489 171.887 33.9489L174.598 33.8271H177.004C177.303 33.888 177.527 33.9299 177.677 33.9489C178.654 33.9489 179.357 34.1582 179.785 34.5769C180.213 34.9955 180.424 35.6837 180.418 36.6415H178.99C178.99 36.1544 178.861 35.7985 178.606 35.5683C178.417 35.3932 178.024 35.2714 177.412 35.1915Z" fill="#BF2F4A"/>
<path d="M190.642 43.4883H188.989V29.9912H190.642V43.4883Z" fill="#BF2F4A"/>
<path d="M195.596 35.9398C195.893 35.0359 196.414 34.4593 197.154 34.2101C197.894 33.9608 198.88 33.8295 200.101 33.8295H200.292C201.131 33.8131 201.97 33.8679 202.8 33.9931C203.431 34.0745 204.028 34.3259 204.525 34.72C204.976 35.0323 205.304 35.4903 205.453 36.0159C205.589 36.5855 205.654 37.1697 205.645 37.7551V43.4828H204.219V37.9035C204.219 36.7301 203.899 35.969 203.26 35.6201C202.621 35.2712 201.629 35.0962 200.283 35.0949C198.734 35.0949 197.565 35.2636 196.776 35.6011C195.988 35.9385 195.594 36.7815 195.596 38.13V43.4923H194.167V33.9779H195.596V35.9398Z" fill="#BF2F4A"/>
<path d="M216.225 43.6084H214.634C212.541 43.6084 211.018 43.3052 210.068 42.6988C209.117 42.0924 208.641 40.7991 208.641 38.8188C208.633 38.1772 208.66 37.5356 208.722 36.8969C208.808 36.3595 209.013 35.8479 209.324 35.3994C209.67 34.8602 210.238 34.4625 211.026 34.2063C211.924 33.9352 212.86 33.8067 213.798 33.8257H214.655C215.72 33.8091 216.785 33.8529 217.845 33.957C218.549 34.048 219.208 34.3539 219.73 34.8323C220.287 35.3296 220.566 36.1542 220.567 37.3061H219.078C219.09 36.9389 219.025 36.5733 218.886 36.2328C218.759 35.9529 218.543 35.7222 218.271 35.5763C217.879 35.387 217.456 35.2672 217.023 35.2224C216.313 35.1314 215.597 35.0907 214.881 35.1006H214.636C213.932 35.0877 213.228 35.1112 212.527 35.171C212.097 35.2313 211.677 35.3471 211.277 35.5154C211.071 35.5884 210.884 35.7076 210.732 35.8636C210.579 36.0197 210.465 36.2085 210.397 36.4155C210.33 36.6276 210.278 36.8445 210.244 37.0644C210.209 37.2794 210.185 37.445 210.171 37.5306V38.8626C210.171 40.0919 210.335 40.945 210.662 41.422C210.824 41.6391 211.028 41.8218 211.263 41.9591C211.497 42.0964 211.757 42.1855 212.027 42.2212L213.597 42.3848H216.185C216.802 42.3528 217.414 42.2532 218.01 42.088C218.819 41.8913 219.224 41.2279 219.224 40.0976H220.711C220.711 41.4283 220.328 42.3474 219.561 42.8548C218.794 43.3623 217.682 43.6134 216.225 43.6084Z" fill="#BF2F4A"/>
<path d="M243.916 0.000111992H254.44C254.996 0.000111992 254.998 0.000111983 254.998 0.559557C254.998 5.84828 254.998 11.1357 254.998 16.4219C254.998 18.5151 253.29 20.4179 251.195 20.6844C250.813 20.7314 250.429 20.7543 250.044 20.7529H229.994C229.334 20.7529 229.334 20.7529 229.334 20.0926C229.334 14.8178 229.334 9.54303 229.334 4.26826C229.341 3.26379 229.699 2.29282 230.348 1.52201C230.997 0.751188 231.896 0.228582 232.89 0.0438781C233.144 0.00731985 233.401 -0.00669008 233.657 0.00201487L243.916 0.000111992ZM242.725 2.80305H233.87C232.8 2.80305 232.218 3.38532 232.218 4.45093C232.218 8.75143 232.218 13.0513 232.218 17.3505C232.218 17.8814 232.218 17.8909 232.76 17.8909C238.611 17.8909 244.463 17.8909 250.317 17.8909C251.526 17.8909 252.155 17.2611 252.155 16.0547C252.155 11.8189 252.155 7.58307 252.155 3.34727C252.155 2.80495 252.155 2.80305 251.58 2.80305H242.725Z" fill="url(#paint0_linear_124_23)"/>
<path d="M223.696 27.527H224.856C225.117 27.527 225.295 27.527 225.418 27.527H225.801V19.3446C225.801 15.6936 225.801 12.0427 225.801 8.39167C225.818 7.58163 225.646 6.77867 225.299 6.04543C224.179 3.75056 222.331 2.5194 219.772 2.48896C215.721 2.43948 211.668 2.47564 207.616 2.47564H195.109C194.524 2.47564 194.524 2.47564 194.524 3.0465C194.524 8.00158 194.524 12.956 194.524 17.9098C194.524 19.1036 194.524 20.2973 194.524 21.4911C194.49 22.5489 194.75 23.5955 195.275 24.5166C196.493 26.5356 198.308 27.527 200.682 27.5251C208.35 27.5251 216.023 27.5251 223.702 27.5251L223.696 27.527ZM222.969 24.3092C222.969 24.6327 222.852 24.7221 222.538 24.7221C215.212 24.7221 207.887 24.7221 200.561 24.7221C200.135 24.7287 199.712 24.6496 199.318 24.4897C198.923 24.3297 198.566 24.0921 198.266 23.7913C197.967 23.4904 197.732 23.1325 197.576 22.7392C197.42 22.3458 197.345 21.9251 197.357 21.5025C197.357 16.2924 197.357 11.0823 197.357 5.87227C197.357 5.33756 197.357 5.33566 197.888 5.33566H208.961C212.548 5.33566 216.133 5.37562 219.718 5.31663C221.459 5.28808 222.991 6.83893 222.977 8.48491C222.956 13.7616 222.956 19.0287 222.969 24.3092Z" fill="#BF2F4A"/>
<path d="M251.273 26.9829C251.271 26.8166 251.256 26.6507 251.231 26.4863C250.947 24.4711 248.93 22.8442 246.822 22.8575C242.412 22.8879 238.017 22.886 233.613 22.8803H225.68V27.8278C225.68 27.9211 225.68 28.0428 225.68 28.2084V33.3899C225.68 35.3562 225.68 37.3225 225.68 39.2888C225.68 41.7264 227.521 43.6236 229.971 43.6312C236.922 43.6521 243.875 43.6312 250.828 43.6445C251.189 43.6445 251.289 43.5151 251.289 43.1707C251.276 37.7703 251.271 32.3744 251.273 26.9829ZM248.453 40.2707C248.453 40.7502 248.436 40.7674 247.947 40.7674H230.277C229.056 40.7674 228.512 40.2345 228.512 39.0376C228.512 34.7638 228.512 30.4906 228.512 26.218C228.512 25.6795 228.512 25.6776 229.039 25.6776C234.903 25.6776 240.768 25.689 246.632 25.6642C246.872 25.6584 247.11 25.7003 247.333 25.7874C247.556 25.8745 247.759 26.0051 247.931 26.1715C248.102 26.3379 248.238 26.5367 248.331 26.7561C248.424 26.9755 248.471 27.2112 248.47 27.4491C248.424 31.723 248.453 35.9969 248.453 40.2707Z" fill="#449923"/>
</g>
<defs>
<linearGradient id="paint0_linear_124_23" x1="229.332" y1="10.3765" x2="255" y2="10.3765" gradientUnits="userSpaceOnUse">
<stop stop-color="#1964B2"/>
<stop offset="1" stop-color="#8126A8"/>
</linearGradient>
<clipPath id="clip0_124_23">
<rect width="255" height="48" fill="white"/>
</clipPath>
</defs>
</svg>
