<svg width="32" height="24" viewBox="0 0 32 24" fill="none" xmlns="http://www.w3.org/2000/svg">
<path d="M26.1355 0.00031763H31.7046C31.9988 0.00031763 31.9998 0.000317625 31.9998 0.296343C31.9998 3.09483 31.9998 5.89264 31.9998 8.68978C31.9998 9.79736 31.0959 10.8042 29.9872 10.9452C29.7853 10.9701 29.582 10.9822 29.3785 10.9815H18.7689C18.4199 10.9815 18.4199 10.9815 18.4199 10.6321C18.4199 7.84097 18.4199 5.04987 18.4199 2.25877C18.4233 1.72726 18.6129 1.21349 18.9563 0.805615C19.2996 0.397743 19.7753 0.121211 20.3016 0.0234761C20.436 0.00413161 20.5718 -0.00328163 20.7074 0.00132452L26.1355 0.00031763ZM25.5055 1.48347H20.82C20.254 1.48347 19.9456 1.79158 19.9456 2.35543C19.9456 4.63101 19.9456 6.90624 19.9456 9.18114C19.9456 9.46206 19.9456 9.4671 20.2327 9.4671C23.3286 9.4671 26.4253 9.4671 29.5226 9.4671C30.1627 9.4671 30.4954 9.13382 30.4954 8.49545C30.4954 6.25411 30.4954 4.01278 30.4954 1.77144C30.4954 1.48447 30.4954 1.48347 30.1911 1.48347H25.5055Z" fill="url(#paint0_linear_388_8)"/>
<path d="M15.4377 14.5662H16.0514C16.1894 14.5662 16.2837 14.5662 16.3487 14.5662H16.5515V10.2365C16.5515 8.30465 16.5515 6.37276 16.5515 4.44088C16.5605 4.01225 16.4695 3.58737 16.2858 3.19938C15.6934 1.98507 14.7155 1.33361 13.3612 1.3175C11.2178 1.29132 9.07334 1.31046 6.92889 1.31046H0.310907C0.00151335 1.31046 0.00151459 1.31046 0.00151459 1.61252C0.00151459 4.23446 0.00151459 6.85607 0.00151459 9.47734C0.00151459 10.109 0.00151459 10.7407 0.00151459 11.3723C-0.0161751 11.932 0.121376 12.4858 0.39916 12.9733C1.04331 14.0416 2.00396 14.5662 3.25979 14.5652C7.31741 14.5652 11.3777 14.5652 15.4408 14.5652L15.4377 14.5662ZM15.0533 12.8635C15.0533 13.0347 14.9914 13.082 14.825 13.082C10.9486 13.082 7.07226 13.082 3.19588 13.082C2.97051 13.0855 2.74675 13.0437 2.5381 12.959C2.32946 12.8743 2.14023 12.7486 1.98184 12.5894C1.82345 12.4303 1.69918 12.2409 1.61651 12.0327C1.53384 11.8246 1.49448 11.602 1.5008 11.3784C1.5008 8.62149 1.5008 5.86462 1.5008 3.10775C1.5008 2.82482 1.5008 2.82381 1.7818 2.82381H7.641C9.53896 2.82381 11.4359 2.84496 13.3328 2.81374C14.2539 2.79864 15.0644 3.61925 15.0573 4.49021C15.0462 7.28232 15.0462 10.0694 15.0533 12.8635Z" fill="#BF2F4A"/>
<path d="M30.0306 14.278C30.0292 14.1899 30.0218 14.1021 30.0083 14.0152C29.8581 12.9489 28.791 12.088 27.6751 12.095C25.342 12.1111 23.016 12.1101 20.6859 12.1071H16.4883V14.725C16.4883 14.7743 16.4883 14.8388 16.4883 14.9264V17.6682C16.4883 18.7086 16.4883 19.7491 16.4883 20.7895C16.4883 22.0793 17.4621 23.0832 18.7585 23.0872C22.4368 23.0983 26.116 23.0872 29.7953 23.0943C29.986 23.0943 30.0387 23.0258 30.0387 22.8436C30.032 19.986 30.0292 17.1308 30.0306 14.278ZM28.5384 21.3091C28.5384 21.5628 28.5293 21.5719 28.2706 21.5719H18.9208C18.2746 21.5719 17.9866 21.2899 17.9866 20.6566C17.9866 18.3951 17.9866 16.134 17.9866 13.8732C17.9866 13.5882 17.9866 13.5872 18.2655 13.5872C21.3686 13.5872 24.4717 13.5933 27.5747 13.5802C27.7015 13.5771 27.8277 13.5992 27.9457 13.6453C28.0638 13.6914 28.1713 13.7606 28.262 13.8486C28.3527 13.9366 28.4246 14.0418 28.4737 14.1579C28.5227 14.274 28.5478 14.3987 28.5475 14.5246C28.5232 16.7861 28.5384 19.0476 28.5384 21.3091Z" fill="#449923"/>
<defs>
<linearGradient id="paint0_linear_388_8" x1="18.4189" y1="5.49089" x2="32.0008" y2="5.49089" gradientUnits="userSpaceOnUse">
<stop stop-color="#1964B2"/>
<stop offset="1" stop-color="#8126A8"/>
</linearGradient>
</defs>
</svg>
